# xmcd CD database file
#
# Track frame offsets:
#	182
#	16432
#	33437
#	52607
#	65735
#	83727
#	95237
#	113642
#	128787
#	145657
#	163545
#	182275
#	199185
#	213575
#	231797
#
# Disc length: 3288 seconds
#
# Revision: 8
# Processed by: cddbd v1.5.2PL0 Copyright (c) Steve Scherf et al.
# Submitted via: CDex 1.51
#
DISCID=c60cd60f
DTITLE=Vince Gill - Souvenirs
DYEAR=1995
DGENRE=Country
TTITLE0=Vince Gill - Never Alone
TTITLE1=Vince Gill - Never Knew Lonely
TTITLE2=Vince Gill - When I Call Your Name
TTITLE3=Vince Gill - Liza Jane
TTITLE4=Vince Gill - Look At Us
TTITLE5=Vince Gill - Take Your Memory With You
TTITLE6=Vince Gill - Pocket Full Of Gold
TTITLE7=Vince Gill with Reba McEntire - The Heart Won't Lie
TTITLE8=Vince Gill - Don't Let Our Love Start Slippin' Away
TTITLE9=Vince Gill - I Still Believe In You
TTITLE10=Vince Gill - No Future In The Past
TTITLE11=Vince Gill - Tryin' To Get Over You
TTITLE12=Vince Gill - One More Last Chance
TTITLE13=Vince Gill - I Can't Tell You Why
TTITLE14=Vince Gill with Dolly Parton - I Will Always Love You
EXTD=Challenge "Rip not accurate"  Ripped twice, different computers.  Vince Gill - Souvenirs, not BMG Record CD. YEAR: 1995
EXTT0=
EXTT1=
EXTT2=
EXTT3=
EXTT4=
EXTT5=
EXTT6=
EXTT7=
EXTT8=
EXTT9=
EXTT10=
EXTT11=
EXTT12=
EXTT13=
EXTT14=
PLAYORDER=
